<?xml version="1.0" encoding="UTF-8" standalone="no"?>
<!-- Created with Inkscape (http://www.inkscape.org/) -->

<svg
   xmlns:dc="http://purl.org/dc/elements/1.1/"
   xmlns:cc="http://creativecommons.org/ns#"
   xmlns:rdf="http://www.w3.org/1999/02/22-rdf-syntax-ns#"
   xmlns:svg="http://www.w3.org/2000/svg"
   xmlns="http://www.w3.org/2000/svg"
   xmlns:sodipodi="http://sodipodi.sourceforge.net/DTD/sodipodi-0.dtd"
   xmlns:inkscape="http://www.inkscape.org/namespaces/inkscape"
   width="24.17627mm"
   height="14.804755mm"
   viewBox="0 0 85.663954 52.457791"
   id="svg2"
   version="1.1"
   inkscape:version="0.91 r13725"
   sodipodi:docname="android_outline_small.svg">
  <defs
     id="defs4" />
  <sodipodi:namedview
     id="base"
     pagecolor="#ffffff"
     bordercolor="#666666"
     borderopacity="1.0"
     inkscape:pageopacity="0.0"
     inkscape:pageshadow="2"
     inkscape:zoom="1.979899"
     inkscape:cx="-96.778667"
     inkscape:cy="-73.67068"
     inkscape:document-units="px"
     inkscape:current-layer="layer1"
     showgrid="false"
     inkscape:window-width="1920"
     inkscape:window-height="1017"
     inkscape:window-x="-8"
     inkscape:window-y="-8"
     inkscape:window-maximized="1"
     fit-margin-top="1"
     fit-margin-left="1"
     fit-margin-right="1"
     fit-margin-bottom="1" />
  <metadata
     id="metadata7">
    <rdf:RDF>
      <cc:Work
         rdf:about="">
        <dc:format>image/svg+xml</dc:format>
        <dc:type
           rdf:resource="http://purl.org/dc/dcmitype/StillImage" />
        <dc:title></dc:title>
      </cc:Work>
    </rdf:RDF>
  </metadata>
  <g
     inkscape:label="Layer 1"
     inkscape:groupmode="layer"
     id="layer1"
     transform="translate(-101.31718,-68.703886)">
    <path
       style="fill:none;stroke:#000000;stroke-width:1.00000012"
       d="m 119.84296,72.751681 c -0.16302,0.0141 -0.32437,0.0617 -0.47554,0.14555 -0.60468,0.33521 -0.80598,1.1206 -0.45079,1.76132 l 6.16141,11.11363 c 0.74375,-0.36834 1.50169,-0.71747 2.27516,-1.04301 l -6.25332,-11.28039 c -0.2664,-0.48054 -0.76783,-0.73931 -1.25692,-0.6971 z"
       id="path4229"
       inkscape:connector-curvature="0" />
    <path
       style="fill:none;stroke:#000000;stroke-width:1.00000012"
       d="m 168.47126,72.751681 c -0.48909,-0.0422 -0.98993,0.21656 -1.25632,0.6971 l -6.25687,11.28628 c 0.77345,0.32584 1.53146,0.67495 2.27517,1.0436 l 6.16435,-11.12011 c 0.3552,-0.64072 0.15448,-1.42611 -0.4502,-1.76132 -0.15117,-0.0838 -0.3131,-0.13148 -0.47613,-0.14555 z"
       id="path4227"
       inkscape:connector-curvature="0" />
    <path
       style="fill:none;stroke:#000000;stroke-width:1.00000012"
       d="m 165.42702,99.566991 a 3.1959783,3.1959783 0 0 1 -3.19598,3.195979 3.1959783,3.1959783 0 0 1 -3.19598,-3.195979 3.1959783,3.1959783 0 0 1 3.19598,-3.19598 3.1959783,3.1959783 0 0 1 3.19598,3.19598 z"
       id="path4225"
       inkscape:connector-curvature="0" />
    <path
       style="fill:none;stroke:#000000;stroke-width:1.00000012"
       d="m 129.38807,99.566991 a 3.1959783,3.1959783 0 0 1 -3.19597,3.195979 3.1959783,3.1959783 0 0 1 -3.19598,-3.195979 3.1959783,3.1959783 0 0 1 3.19598,-3.19598 3.1959783,3.1959783 0 0 1 3.19597,3.19598 z"
       id="path4223"
       inkscape:connector-curvature="0" />
    <path
       style="fill:none;stroke:#000000;stroke-width:1.00000012"
       d="m 144.14916,81.396851 c -21.48891,0 -38.78867,15.20983 -38.78867,34.102799 l 0,1.61872 77.57734,0 0,-1.61872 c 0,-18.892969 -17.29977,-34.102799 -38.78867,-34.102799 z"
       id="path4221"
       inkscape:connector-curvature="0" />
  </g>
</svg>
