<?xml version="1.0" encoding="UTF-8" standalone="no"?>
<!-- Created with Inkscape (http://www.inkscape.org/) -->

<svg
   xmlns:dc="http://purl.org/dc/elements/1.1/"
   xmlns:cc="http://creativecommons.org/ns#"
   xmlns:rdf="http://www.w3.org/1999/02/22-rdf-syntax-ns#"
   xmlns:svg="http://www.w3.org/2000/svg"
   xmlns="http://www.w3.org/2000/svg"
   xmlns:sodipodi="http://sodipodi.sourceforge.net/DTD/sodipodi-0.dtd"
   xmlns:inkscape="http://www.inkscape.org/namespaces/inkscape"
   width="35.794075mm"
   height="41.920444mm"
   viewBox="0 0 126.82941 148.537"
   id="svg2"
   version="1.1"
   inkscape:version="0.91 r13725"
   sodipodi:docname="android_outline.svg">
  <defs
     id="defs4" />
  <sodipodi:namedview
     id="base"
     pagecolor="#ffffff"
     bordercolor="#666666"
     borderopacity="1.0"
     inkscape:pageopacity="0.0"
     inkscape:pageshadow="2"
     inkscape:zoom="2.8"
     inkscape:cx="87.72875"
     inkscape:cy="31.393571"
     inkscape:document-units="px"
     inkscape:current-layer="layer1"
     showgrid="false"
     inkscape:window-width="1920"
     inkscape:window-height="1017"
     inkscape:window-x="1912"
     inkscape:window-y="-8"
     inkscape:window-maximized="1"
     fit-margin-top="1"
     fit-margin-left="1"
     fit-margin-right="1"
     fit-margin-bottom="1" />
  <metadata
     id="metadata7">
    <rdf:RDF>
      <cc:Work
         rdf:about="">
        <dc:format>image/svg+xml</dc:format>
        <dc:type
           rdf:resource="http://purl.org/dc/dcmitype/StillImage" />
        <dc:title />
      </cc:Work>
    </rdf:RDF>
  </metadata>
  <g
     inkscape:label="Layer 1"
     inkscape:groupmode="layer"
     id="layer1"
     transform="translate(-80.960684,-69.053053)">
    <path
       style="fill:#000000;stroke:#000000;stroke-width:1.00000009"
       d="m 119.84296,72.751681 c -0.16302,0.0141 -0.32437,0.0617 -0.47554,0.14555 -0.60468,0.33521 -0.80598,1.1206 -0.45079,1.76132 l 6.16141,11.11363 c 0.74375,-0.36834 1.50169,-0.71747 2.27516,-1.04301 l -6.25332,-11.28039 c -0.2664,-0.48054 -0.76783,-0.73931 -1.25692,-0.6971 z"
       id="path4229" />
    <path
       style="fill:#000000;stroke:#000000;stroke-width:1.00000009"
       d="m 168.47126,72.751681 c -0.48909,-0.0422 -0.98993,0.21656 -1.25632,0.6971 l -6.25687,11.28628 c 0.77345,0.32584 1.53146,0.67495 2.27517,1.0436 l 6.16435,-11.12011 c 0.3552,-0.64072 0.15448,-1.42611 -0.4502,-1.76132 -0.15117,-0.0838 -0.3131,-0.13148 -0.47613,-0.14555 z"
       id="path4227" />
    <path
       style="fill:#000000;stroke:#000000;stroke-width:1.00000009"
       d="m 144.14916,81.396851 c -21.48891,0 -38.78867,15.20983 -38.78867,34.102799 l 0,1.61872 77.57734,0 0,-1.61872 c 0,-18.892969 -17.29977,-34.102799 -38.78867,-34.102799 z"
       id="path4221" />
    <path
       style="fill:#ffffff;stroke:#ffffff;stroke-width:1.00000009"
       d="m 165.42702,99.566991 a 3.1959783,3.1959783 0 0 1 -3.19598,3.195979 3.1959783,3.1959783 0 0 1 -3.19598,-3.195979 3.1959783,3.1959783 0 0 1 3.19598,-3.19598 3.1959783,3.1959783 0 0 1 3.19598,3.19598 z"
       id="path4225" />
    <path
       style="fill:#ffffff;stroke:#ffffff;stroke-width:1.00000009"
       d="m 129.38807,99.566991 a 3.1959783,3.1959783 0 0 1 -3.19597,3.195979 3.1959783,3.1959783 0 0 1 -3.19598,-3.195979 3.1959783,3.1959783 0 0 1 3.19598,-3.19598 3.1959783,3.1959783 0 0 1 3.19597,3.19598 z"
       id="path4223" />
    <path
       style="fill:#000000;stroke:#000000;stroke-width:1.00000009"
       d="m 150.03419,186.04229 0,18.7482 c 0,5.04451 3.86756,9.1054 8.67169,9.1054 4.80413,0 8.67169,-4.06089 8.67169,-9.1054 l 0,-18.65156 -17.34338,-0.0966 z"
       id="path4219" />
    <path
       style="fill:#000000;stroke:#000000;stroke-width:1.00000009"
       d="m 121.15645,185.88201 0,18.90848 c 0,5.04451 3.86756,9.1054 8.67169,9.1054 4.80413,0 8.67169,-4.06089 8.67169,-9.1054 l 0,-18.81184 -17.34338,-0.0966 z"
       id="path4217" />
    <path
       style="fill:#000000;stroke:#000000;stroke-width:1.00000009"
       d="m 93.326554,118.68134 c 4.80414,0 8.671716,4.0611 8.671716,9.10562 l 0,35.55466 c 0,5.04452 -3.867576,9.10562 -8.671716,9.10562 -4.80412,0 -8.67171,-4.0611 -8.67171,-9.10562 l 0,-35.55466 c 0,-5.04452 3.86759,-9.10562 8.67171,-9.10562 z"
       id="path4215" />
    <path
       style="fill:#000000;stroke:#000000;stroke-width:1.00000009"
       d="m 195.42422,118.68134 c 4.80412,0 8.67171,4.0611 8.67171,9.10562 l 0,35.55466 c 0,5.04452 -3.86759,9.10562 -8.67171,9.10562 -4.80414,0 -8.67172,-4.0611 -8.67172,-9.10562 l 0,-35.55466 c 0,-5.04452 3.86758,-9.10562 8.67172,-9.10562 z"
       id="path4213" />
    <path
       style="fill:#000000;stroke:#000000;stroke-width:1.00000009"
       d="m 105.27851,120.07153 77.65508,0 0,55.07837 c 0,6.84653 -3.12908,11.05787 -10.65775,11.01608 l -58.23244,-0.32326 c -5.01627,-0.0278 -8.52711,-3.80395 -8.55005,-9.78545 z"
       id="rect4194" />
  </g>
</svg>
