<?xml version="1.0" encoding="UTF-8" standalone="no"?>
<!-- Generator: Adobe Illustrator 19.0.0, SVG Export Plug-In . SVG Version: 6.00 Build 0)  -->

<svg
   xmlns:dc="http://purl.org/dc/elements/1.1/"
   xmlns:cc="http://creativecommons.org/ns#"
   xmlns:rdf="http://www.w3.org/1999/02/22-rdf-syntax-ns#"
   xmlns:svg="http://www.w3.org/2000/svg"
   xmlns="http://www.w3.org/2000/svg"
   xmlns:sodipodi="http://sodipodi.sourceforge.net/DTD/sodipodi-0.dtd"
   xmlns:inkscape="http://www.inkscape.org/namespaces/inkscape"
   version="1.1"
   id="Capa_1"
   x="0px"
   y="0px"
   viewBox="0 0 60 60"
   xml:space="preserve"
   inkscape:version="0.91 r13725"
   sodipodi:docname="resume.svg"
   style="enable-background:new 0 0 60 60;"><metadata
     id="metadata4379"><rdf:RDF><cc:Work
         rdf:about=""><dc:format>image/svg+xml</dc:format><dc:type
           rdf:resource="http://purl.org/dc/dcmitype/StillImage" /></cc:Work></rdf:RDF></metadata><defs
     id="defs4377" /><sodipodi:namedview
     pagecolor="#ffffff"
     bordercolor="#666666"
     borderopacity="1"
     objecttolerance="10"
     gridtolerance="10"
     guidetolerance="10"
     inkscape:pageopacity="0"
     inkscape:pageshadow="2"
     inkscape:window-width="759"
     inkscape:window-height="625"
     id="namedview4375"
     showgrid="false"
     inkscape:zoom="3.9333333"
     inkscape:cx="25"
     inkscape:cy="31.739595"
     inkscape:window-x="2188"
     inkscape:window-y="194"
     inkscape:window-maximized="0"
     inkscape:current-layer="Capa_1"
     fit-margin-top="1"
     fit-margin-left="1"
     fit-margin-right="1"
     fit-margin-bottom="1" /><path
     d="m 38.725144,0.63559322 -31.7272626,0 0,58.72881378 46.0042376,0 0,-44.451839 L 38.725144,0.63559322 Z M 34.404661,30.978814 c 0,0.541283 -0.438508,0.978813 -0.978814,0.978813 l -9.788135,0 c -0.540305,0 -0.978814,-0.43753 -0.978814,-0.978813 C 22.658898,30.43753 23.097407,30 23.637712,30 l 9.788135,0 c 0.540306,0 0.978814,0.43753 0.978814,0.978814 z M 16.553059,23.617157 16.86628,22.891856 c 0.284834,-0.65972 0.752707,-1.181428 1.35272,-1.508352 l 2.157305,-1.06397 c -0.94847,-0.608822 -1.631682,-1.524992 -2.038869,-2.733826 -0.669508,-0.408166 -1.091377,-1.133466 -1.091377,-1.941966 l 0,-0.652869 c 0,-0.653848 0.282877,-1.265606 0.761517,-1.693348 0.09397,-0.600012 0.248619,-1.163809 0.461021,-1.68258 0.09984,-0.241767 0.184017,-0.422848 0.251556,-0.56967 0.04502,-0.09788 0.101796,-0.219254 0.109627,-0.253512 0.0029,-0.03132 -0.002,-0.149759 -0.08418,-0.56086 -0.06362,-0.3200725 -0.105712,-0.6137166 -0.135077,-0.8652716 -0.03622,-0.315178 0.06362,-0.6313348 0.273089,-0.86625 0.438509,-0.4894068 1.293013,-0.4668941 1.702157,0.054813 0.07439,0.094945 0.226106,0.2495975 0.522687,0.4492754 0.501152,0.3386695 1.182406,0.4913644 1.895961,0.4287204 0.143886,-0.011746 0.290708,-0.017619 0.441445,-0.017619 3.813458,0 5.073191,2.0095038 5.422628,3.8672918 0.489406,0.428721 0.777177,1.045373 0.777177,1.70803 l 0,0.652869 c 0,0.8085 -0.421868,1.533801 -1.091377,1.941966 -0.409144,1.213729 -1.096271,2.131856 -2.050614,2.741657 l 2.077042,1.060055 c 0.618611,0.310284 1.110954,0.830034 1.416344,1.498563 l 0.336711,0.736068 -0.65972,0.468852 c -1.835275,1.305737 -3.988665,1.994822 -6.230148,1.994822 -2.249314,0 -4.409555,-0.693979 -6.248746,-2.008526 l -0.642102,-0.459063 z m 3.169399,7.361657 c 0,0.254491 -0.10767,0.508983 -0.283856,0.694957 -0.185975,0.176187 -0.430678,0.283856 -0.694958,0.283856 -0.26428,0 -0.518771,-0.107669 -0.694958,-0.293644 -0.176186,-0.177165 -0.283855,-0.430678 -0.283855,-0.685169 0,-0.255471 0.107669,-0.509962 0.283855,-0.694958 0.352373,-0.352373 1.027755,-0.362161 1.389916,0 0.176186,0.184996 0.283856,0.439487 0.283856,0.694958 z m -1.957627,4.894067 c 0,-0.541284 0.438508,-0.978813 0.978813,-0.978813 l 16.639831,0 c 0.540305,0 0.978813,0.437529 0.978813,0.978813 0,0.541284 -0.438508,0.978814 -0.978813,0.978814 l -16.639831,0 c -0.540305,0 -0.978813,-0.43753 -0.978813,-0.978814 z m 5.076127,11.516721 c -0.03034,0.898551 -1.022861,1.235262 -1.670835,0.692021 -0.915191,-0.76739 -1.83136,-1.533801 -2.746551,-2.301191 -0.969025,-0.812415 0.423826,-2.189606 1.384042,-1.385021 0.405229,0.339648 0.810458,0.678318 1.214708,1.017966 0.262322,-2.213097 0.983708,-4.346911 3.128288,-5.463737 1.117805,-0.581415 2.108365,1.108017 0.987623,1.690411 -2.124025,1.107038 -2.225822,3.628462 -2.297275,5.749551 z M 37.475199,45.91453 c -0.240788,-0.329861 -3.351457,1.185343 -4.241199,0.864292 -0.697894,-0.251555 -1.221559,-0.572606 -1.661047,-1.044394 -2.077042,1.126614 -4.439898,1.736415 -6.271258,-0.253513 -0.852547,-0.926936 0.52758,-2.314894 1.384042,-1.384042 1.457454,1.584699 3.269238,0.361182 4.655238,-0.489407 0.448296,-0.275047 1.082567,-0.106691 1.339017,0.351394 1.012093,1.803954 3.460105,-0.236873 4.886237,-0.129203 0.756623,0.05775 1.183385,0.530517 1.597424,1.09725 0.747813,1.020902 -0.952386,1.995801 -1.688454,0.987623 z M 40.9725,36.567839 c -0.185975,0.176186 -0.440466,0.283856 -0.694958,0.283856 -0.254491,0 -0.508983,-0.10767 -0.694957,-0.283856 -0.185975,-0.185975 -0.283856,-0.430678 -0.283856,-0.694958 0,-0.265258 0.107669,-0.509962 0.283856,-0.694957 0.371949,-0.362161 1.017966,-0.362161 1.389915,0 0.176186,0.184995 0.283856,0.439487 0.283856,0.694957 0,0.26428 -0.09788,0.508983 -0.283856,0.694958 z m 4.894068,-0.0098 c -0.185975,0.185974 -0.440466,0.293644 -0.694958,0.293644 -0.254491,0 -0.508983,-0.10767 -0.694957,-0.283856 -0.185975,-0.185975 -0.283856,-0.430678 -0.283856,-0.694958 0,-0.265258 0.107669,-0.509962 0.283856,-0.694957 0.371949,-0.362161 1.017966,-0.362161 1.389915,0 0.176186,0.184995 0.283856,0.439487 0.283856,0.694957 0,0.254492 -0.09788,0.499195 -0.283856,0.68517 z m -0.694958,-4.600424 -6.851695,0 c -0.540305,0 -0.978813,-0.43753 -0.978813,-0.978813 C 37.341102,30.43753 37.77961,30 38.319915,30 l 6.851695,0 c 0.540305,0 0.978814,0.43753 0.978814,0.978814 0,0.541283 -0.438509,0.978813 -0.978814,0.978813 z m -7.830508,-15.661017 0,-13.7033897 13.70339,13.7033897 -13.70339,0 z"
     id="path4343"
     style="fill:#ffc625;fill-opacity:1;stroke:#333333;stroke-width:0.97881359;stroke-opacity:0.94117647"
     inkscape:connector-curvature="0" /><g
     id="g4345" /><g
     id="g4347" /><g
     id="g4349" /><g
     id="g4351" /><g
     id="g4353" /><g
     id="g4355" /><g
     id="g4357" /><g
     id="g4359" /><g
     id="g4361" /><g
     id="g4363" /><g
     id="g4365" /><g
     id="g4367" /><g
     id="g4369" /><g
     id="g4371" /><g
     id="g4373" /></svg>