<?xml version="1.0" encoding="utf-8"?>
<!-- Generator: Adobe Illustrator 18.1.1, SVG Export Plug-In . SVG Version: 6.00 Build 0)  -->
<!DOCTYPE svg PUBLIC "-//W3C//DTD SVG 1.1//EN" "http://www.w3.org/Graphics/SVG/1.1/DTD/svg11.dtd">
<svg version="1.1" id="Layer_1" xmlns="http://www.w3.org/2000/svg" xmlns:xlink="http://www.w3.org/1999/xlink" x="0px" y="0px"
	 viewBox="0 0 1280 800" enable-background="new 0 0 1280 800" xml:space="preserve">
<g>
	<path d="M374.4,497.9c22.6,0,59.8,9.8,59.8,33.9v13.1h-14.9V536c0-14.9-25.9-23.2-44.3-23.2c-35.4,0-62.8,27.7-62.8,66.4
		c0,38.4,27.1,69,63.4,69c33,0,52.4-22.6,52.4-22.6l9.2,11.6c0,0-22,25.9-61.6,25.9c-47,0-80-37.2-80-83.9
		C295.6,533.3,329.5,497.9,374.4,497.9z"/>
	<path d="M608,514.9h-14.9v-14H661c26.8,0,46.1,17.9,46.1,45.5c0,24.7-15.2,39.3-30.9,42.8v0.6c0,0,3.3,1.8,5.4,6.2l22.9,45.5
		c2.4,4.8,5.7,5.4,11.3,5.4h3.3v14H712c-13.1,0-17-1.5-22-12.2L666.9,603c-4.5-8.3-7.1-9.5-16.1-9.5H624v67.2h-16V514.9z
		 M659.5,579.5c19,0,30.9-12.5,30.9-32.4s-11.9-31.8-30.6-31.8h-35.7v64.3L659.5,579.5L659.5,579.5z"/>
	<path d="M745.8,514.9h-14.9v-14h91.6c9.8,0,14,4.2,14,14V531h-14.9v-10.7c0-3.3-1.8-5.1-5.1-5.1h-54.7v58.3H822v14h-60.1V642
		c0,3.3,1.8,5.1,5.1,5.1h56.2c3.3,0,5.1-1.5,5.1-5.1v-10.7h14.9v16.1c0,9.8-4.2,14-14,14h-69.3c-9.8,0-14-4.2-14-14V514.9H745.8z"/>
	<path d="M909.4,514.9h-39.6c-3.3,0-5.1,1.5-5.1,5.1v10.7h-14.6v-17c0-9.8,3.3-13.1,13.1-13.1h108c9.8,0,13.1,3.3,13.1,13.1v17
		h-14.9V520c0-3.6-1.5-5.1-5.1-5.1H925v145.8h-16.1V514.9H909.4z"/>
	<path d="M508.6,500.9h10.7l44.9,103.3h-14.9L514,519.9l-35.4,84.2h-14.9L508.6,500.9z"/>
</g>
<path d="M321.9,184.3c-5.5,0-10.2,0-14.8-0.4c-4.7-0.4-7.6-1.7-8.9-3.8s-2.1-4.7-2.1-6.8s2.1-3.8,6.8-4.7s11.5-1.3,20.8-1.3
	c2.1,0,5.5,0,8.9,0c0.4-7.6,0.8-14.8,0.8-21.6c0-15.7-2.1-30.5-6.4-44.5c-4.2-14.4-13.6-21.6-28-21.6c-10.2,0-17.8,5.5-23.3,16.1
	c-3.8,7.6-6.8,12.3-8.9,14.4s-4.2,3-7.2,3c-8.1,0-11.9-4.2-11.9-12.7c0-8.1,3.4-14.4,9.8-19.9c6.8-5.5,17.4-8.1,32.7-8.1
	c16.1,0,29.7,4.2,40.3,12.3c10.6,8.5,17.8,18.7,21.2,31.4s5.1,29.3,5.1,50.5c14,0.4,22.5,1.3,24.6,2.5c2.1,1.3,3.4,4.2,3.4,8.5
	c0,2.5-2.5,3.8-7.2,3.8s-11.5,0.4-20.8,1.3c0,9.8,0,18.2,0,26.3c0,19.5,0.4,39.4,1.3,59.4s1.3,31.8,2.1,34.8
	c0.8,3.4,2.1,5.9,4.7,7.6c2.1,1.7,6.4,3,11.9,3.8c4.2,0.4,6.4,2.1,6.4,4.2c0,1.7-1.3,2.5-3.8,2.5h-2.1c-6.8-0.8-19.9-1.3-39.9-1.3
	l-30.5,1.7c-2.5,0-3.8-0.8-3.8-2.5c0-2.1,1.7-3.4,5.1-3.8c8.9-1.3,15.3-3.8,19.1-8.9c3.8-4.7,5.9-11,5.9-18.2
	c0.4-7.6,0.4-27.6,0.4-60.7c0-25.4-0.4-40.7-0.8-45.4C328.3,183.8,324.9,184.3,321.9,184.3z"/>
<path d="M506.4,297.5c-5.9,8.5-13.1,14.8-21.2,19.1c-8.1,4.2-17.4,6.4-28,6.4c-12.3,0-21.6-3.4-28.8-9.8
	c-6.8-6.4-10.6-15.3-10.6-25.9c0-8.1,2.1-15.3,6.4-22.5c4.2-6.8,8.9-11.9,14.4-14.8c5.5-3,14.8-6.8,28.4-11.5
	c19.5-6.4,31-11.9,34.8-16.1c3.8-4.2,5.9-9.8,5.9-16.5c0-10.6-2.5-19.1-7.6-25s-12.3-8.9-21.6-8.9c-7.6,0-13.1,1.7-17.4,5.1
	c-3.8,3.4-6.8,10.2-8.9,20.4c-2.1,11-6.8,16.5-14.4,16.5c-2.5,0-5.5-1.3-8.9-3.8s-4.7-6.8-4.7-11.9c0-8.9,5.1-17,14.8-23.8
	c10.2-6.8,23.8-10.2,41.1-10.2c14,0,25,2.1,33.1,5.9c8.5,3.8,13.6,8.5,15.7,13.6c2.1,5.1,3,14.8,3,29.3l-1.3,47.9
	c0,18.7,1.3,31.8,3.4,39.4s6.4,11.9,12.3,11.9c1.3,0,3,0,5.1-0.4l3-0.4c3,0,4.2,0.8,4.2,3c0,4.7-11.9,6.8-35.6,6.8
	c-6.8,0-11.5-1.7-14-4.7C506.4,313.6,506.9,307.7,506.4,297.5z M506.4,226.7c-3.8,4.7-11.9,10.6-24.6,17.4
	c-12.7,6.4-21.6,12.7-27.6,18.7c-5.5,5.9-8.5,13.1-8.5,21.6c0,7.6,2.1,14,6.8,19.5c4.7,5.5,10.2,8.1,17,8.1c7.2,0,13.6-2.1,19.9-6.4
	c6.4-4.2,10.6-9.8,13.6-16.5s4.2-16.5,4.2-29.7C507.7,249.6,507.3,238.6,506.4,226.7z"/>
<path d="M619.7,168.6c0.4,8.1,1.3,30.5,1.7,68.3c0.4,23.3,0.8,39,1.7,46.7s3.8,14.4,9.3,19.1c5.1,5.1,11,7.6,17.8,7.6
	c8.9,0,17.4-4.2,26.3-12.3c8.9-8.1,14-17,16.1-25.9c2.1-9.3,3-30.5,3-63.6c0-15.3-0.8-25-3-28c-2.1-3.4-6.8-5.1-14-5.5
	c-3,0-4.2-1.3-4.2-3c0-1.3,0.4-2.1,1.3-2.5c0.8-0.4,3.4-0.4,8.1-0.4h36.1c1.3,13.1,1.7,28,1.7,44.1l-1.3,68.3
	c0,14,1.3,22.9,3.4,26.3c2.5,3.8,5.9,5.5,11,6.4c3,0.4,4.7,1.7,4.7,3.8s-3,3.4-9.3,3.4h-28.8c-5.1,0-7.6-1.7-7.6-5.1
	c0-0.8,0-2.1,0-3.4c0.4-3.8,0.4-7.2,0.4-11c0-3,0-7.6-0.4-13.6c-9.3,11.9-18.7,20.8-28.8,26.7c-9.8,5.9-20.4,8.9-31,8.9
	c-9.3,0-17-2.1-22.9-6.8c-6.4-4.7-10.2-9.8-12.3-16.1c-2.1-6.4-3.4-22.1-4.2-47.5s-1.3-45-1.3-59.4c0-8.1-0.4-12.7-1.3-14.8
	c-0.8-2.1-3.4-3-8.1-3.4c-4.7-0.4-7.2-1.7-7.2-3.8s3-3,8.9-3h34.4v-0.5H619.7z"/>
<path d="M764.8,247.5c0-22.1,7.2-41.6,21.2-58.1s31.4-25,51.7-25c13.1,0,25.9,3.4,37.8,9.8c11.9,6.4,18.2,14.4,18.2,24.2
	c0,3.8-1.3,7.2-3.4,9.8c-2.1,3-5.1,4.2-8.1,4.2c-6.8,0-11.9-5.5-15.7-16.1c-5.5-16.5-15.3-25-29.3-25c-13.6,0-24.2,5.9-31.4,17.8
	c-7.2,11.9-10.6,27.6-10.6,47.1c0,22.9,5.1,41.1,14.8,55.6c10.2,14.4,22.1,21.6,36.1,21.6c9.3,0,18.2-3.8,27.1-11
	c8.5-7.2,13.6-15.7,14.8-26.3c0.4-3.4,2.1-5.1,3.8-5.1c2.1,0,3.4,1.3,3.4,3.4c0,11.9-5.5,22.9-16.5,33.5
	c-11,10.2-25.4,15.7-44.1,15.7c-19.9,0-36.9-7.6-50.5-22.9C771.5,285.2,764.8,267.4,764.8,247.5z"/>
<path d="M949.7,236c-0.4,6.4-0.8,11-0.8,14.8c0,17,5.1,31.8,15.3,43.7s22.5,17.8,37.3,17.8c14.4,0,28-5.9,40.3-17.4
	c3.8-3.4,5.9-5.1,6.8-5.1c2.1,0,3,1.7,3,4.7c-4.7,8.5-12.3,15.7-23.8,21.2c-11,5.9-23.3,8.9-37.3,8.9c-19.9,0-36.9-7.2-50.9-21.6
	s-20.8-32.7-20.8-54.7c0-23.8,7.6-43.3,22.9-59.4c15.3-15.7,31.8-23.8,49.2-23.8c16.1,0,31,6.4,44.1,18.7
	c13.1,12.3,19.9,26.7,19.9,43.7c0,2.5-0.4,4.2-1.3,5.5c-0.8,1.3-5.5,1.7-14,1.7L949.7,236z M949.7,226.7c15.7,0.8,31,1.3,45.8,1.3
	l9.8-0.4c7.2-0.4,12.7-1.7,16.5-4.2s5.9-7.2,5.9-13.6c0-10.2-3.4-19.1-10.6-26.7c-6.8-7.6-15.3-11.5-24.6-11.5
	c-8.9,0-17.4,4.2-25.9,13.1C958.2,192.8,952.2,207.2,949.7,226.7z"/>
<path d="M1121.5,181.7c-1.7,26.7-2.5,53-2.5,78.9c0,19.9,2.5,32.7,7.2,39c4.7,5.9,11.5,8.9,20.4,8.9c6.4,0,13.6-2.5,21.2-7.2
	c3-1.7,4.7-2.5,5.1-2.5c1.7,0,2.5,0.8,2.5,2.5c0,3-4.2,7.6-12.7,13.6c-8.5,6.4-19.1,9.3-31.8,9.3c-12.3,0-21.6-4.2-28-12.7
	s-9.3-21.2-9.3-38.6c0-17.8,1.3-48.4,3.4-91.6c-0.8-0.4-6.8-0.8-17.4-1.3l-11-0.8c-2.5,0-3.8-0.8-3.8-2.5s1.7-3,4.7-3.8
	c5.1-1.7,13.1-7.2,25-15.7c11.9-8.9,18.7-21.2,20.4-37.3c0.4-4.2,1.7-6.4,4.2-6.4c2.1,0,3.4,1.7,3.4,5.1c0,1.3,0,2.1,0,3.4
	c-0.4,4.7-0.4,10.2-0.4,16.1v28l39.9-0.4c6.8,0,10.2,0.8,10.6,2.5c0,5.5-0.8,8.9-2.5,10.6C1162.6,178.8,1146.5,179.6,1121.5,181.7z"
	/>
<path fill="#5B5B5B" stroke="#000000" stroke-width="4" stroke-miterlimit="10" d="M112.8,338.2c0,0,0.4-10.6,55.1-10.2
	s63.2-2.5,76.8-7.6c14-5.1,26.3,1.3,26.3,1.3l-16.1,14.4"/>
<path d="M255.3,338.7h-162c-1.3,0-2.1-0.8-2.5-1.7c-0.4-1.3,0.4-2.5,1.3-3l50.9-28c0.4,0,0.8-1.3,1.3-1.3H285c1.3,0,2.1,1.7,2.5,2.5
	s0,2.5-0.8,3.4l-30.1,27.1C256.6,338.2,255.8,338.7,255.3,338.7z M104.3,334.4H254l24.2-21.2H145.1L104.3,334.4z"/>
</svg>
