<?xml version="1.0" encoding="UTF-8" standalone="no"?>
<!-- Created with Inkscape (http://www.inkscape.org/) -->

<svg
   xmlns:dc="http://purl.org/dc/elements/1.1/"
   xmlns:cc="http://creativecommons.org/ns#"
   xmlns:rdf="http://www.w3.org/1999/02/22-rdf-syntax-ns#"
   xmlns:svg="http://www.w3.org/2000/svg"
   xmlns="http://www.w3.org/2000/svg"
   xmlns:sodipodi="http://sodipodi.sourceforge.net/DTD/sodipodi-0.dtd"
   xmlns:inkscape="http://www.inkscape.org/namespaces/inkscape"
   width="35.794075mm"
   height="41.920444mm"
   viewBox="0 0 126.82941 148.537"
   id="svg2"
   version="1.1"
   inkscape:version="0.91 r13725"
   sodipodi:docname="web.svg">
  <defs
     id="defs4" />
  <sodipodi:namedview
     id="base"
     pagecolor="#ffffff"
     bordercolor="#666666"
     borderopacity="1.0"
     inkscape:pageopacity="0.0"
     inkscape:pageshadow="2"
     inkscape:zoom="0.9899495"
     inkscape:cx="221.81948"
     inkscape:cy="-64.356499"
     inkscape:document-units="px"
     inkscape:current-layer="layer1"
     showgrid="false"
     inkscape:window-width="1920"
     inkscape:window-height="1017"
     inkscape:window-x="1912"
     inkscape:window-y="-8"
     inkscape:window-maximized="1"
     fit-margin-top="1"
     fit-margin-left="1"
     fit-margin-right="1"
     fit-margin-bottom="1"
     showguides="true"
     inkscape:guide-bbox="true">
    <sodipodi:guide
       position="-127.68961,78.697195"
       orientation="1,0"
       id="guide4310" />
  </sodipodi:namedview>
  <metadata
     id="metadata7">
    <rdf:RDF>
      <cc:Work
         rdf:about="">
        <dc:format>image/svg+xml</dc:format>
        <dc:type
           rdf:resource="http://purl.org/dc/dcmitype/StillImage" />
        <dc:title></dc:title>
      </cc:Work>
    </rdf:RDF>
  </metadata>
  <g
     inkscape:label="Layer 1"
     inkscape:groupmode="layer"
     id="layer1"
     transform="translate(-80.960684,-69.053053)">
    <path
       id="path4312"
       style="opacity:1;fill:#000000;stroke:none;stroke-width:1"
       d="m 171.99639,115.63672 c 1.12378,0.0206 2.29943,0.34535 3.38377,0.99957 l 25.89184,16.21365 c 0,0 0.16386,0.0584 0.22221,0.11868 0.13395,0.13868 0.29453,0.29157 0.43944,0.4397 0.34195,0.34955 0.70738,0.69529 1.01459,1.05957 0.35369,0.41942 0.71569,0.86168 0.97117,1.32885 0.3433,0.62778 0.65352,1.26698 0.87618,1.94103 0.37673,1.14035 0.65498,2.27323 0.76558,3.52062 0.11659,1.31524 -0.36451,2.762 -0.80383,4.07494 -0.21679,0.64784 -0.60741,1.34164 -0.89338,1.84447 -0.29387,0.51669 -0.68471,0.98957 -1.08607,1.43564 -0.40281,0.4477 -1.31811,1.23564 -1.31811,1.23564 l -26.07962,16.03146 c -2.89158,1.7446 -6.426,1.1521 -7.92264,-1.32852 -1.49665,-2.4806 -0.37226,-5.88224 2.51933,-7.62684 l 25.96597,-15.66679 -25.96597,-15.66679 c -2.89159,-1.7446 -4.01598,-5.14624 -2.51933,-7.62686 0.93539,-1.55038 2.66591,-2.3624 4.53887,-2.32808 z m -53.68289,0 c -1.12378,0.0206 -2.29943,0.34535 -3.38377,0.99957 l -25.891837,16.21365 c 0,0 -0.163861,0.0584 -0.222207,0.11868 -0.133951,0.13868 -0.294536,0.29157 -0.439441,0.4397 -0.341953,0.34955 -0.707381,0.69529 -1.014594,1.05957 -0.353691,0.41942 -0.715685,0.86168 -0.971171,1.32885 -0.343303,0.62778 -0.653518,1.26698 -0.876183,1.94103 -0.376734,1.14035 -0.654976,2.27323 -0.765583,3.52062 -0.116587,1.31524 0.364514,2.762 0.803837,4.07494 0.216789,0.64784 0.607401,1.34164 0.893376,1.84447 0.29387,0.51669 0.684717,0.98957 1.086074,1.43564 0.402806,0.4477 1.318113,1.23564 1.318113,1.23564 l 26.079616,16.03146 c 2.89158,1.7446 6.426,1.1521 7.92265,-1.32852 1.49664,-2.4806 0.37225,-5.88224 -2.51934,-7.62684 L 94.367069,141.25839 120.33304,125.5916 c 2.89159,-1.7446 4.01598,-5.14624 2.51934,-7.62686 -0.9354,-1.55038 -2.66592,-2.3624 -4.53888,-2.32808 z m 45.57191,-22.616965 c 2.70236,1.044361 3.89786,4.42109 2.68048,7.571155 l -32.99321,85.37284 c -1.21738,3.15005 -4.37297,4.84526 -7.07533,3.80092 -2.70236,-1.04435 -3.89785,-4.42109 -2.68047,-7.57115 l 32.99321,-85.372832 c 1.21738,-3.15007 4.37298,-4.845282 7.07532,-3.800933 z"
       inkscape:connector-curvature="0" />
  </g>
</svg>
